<?xml version="1.0" encoding="utf-8"?>
<!-- Generator: Adobe Illustrator 26.0.1, SVG Export Plug-In . SVG Version: 6.00 Build 0)  -->
<svg version="1.1" id="Layer_1" xmlns="http://www.w3.org/2000/svg" xmlns:xlink="http://www.w3.org/1999/xlink" x="0px" y="0px"
	 viewBox="0 0 1403 400" style="enable-background:new 0 0 1403 400;" xml:space="preserve">
<style type="text/css">
	.st0{fill:none;stroke:#CCCCCC;}
	.st1{display:none;fill:#212121;enable-background:new    ;}
	.st2{font-family:calibri;}
	.st3{font-size:12px;}
	.st4{fill:#212121;}
	.st5{clip-path:url(#SVGID_00000052821534023020293700000000143665270663882173_);}
	.st6{opacity:0.25;fill:none;stroke:#424242;enable-background:new    ;}
	.st7{fill:none;stroke:#999999;stroke-width:1.5;}
	.st8{fill:none;stroke:#0077BB;stroke-width:2;}
	.st9{fill:none;stroke:#C900DF;stroke-width:2;}
	.st10{clip-path:url(#SVGID_00000163031043652694074020000016377077059246681022_);}
	.st11{fill:#FFFFFF;stroke:#000000;stroke-miterlimit:10;}
	.st12{font-family:calibri;}
	.st13{font-size:21px;}
</style>
<g>
	<g>
		<g>
			<g>
				<g>
					<line class="st0" x1="30.8" y1="377" x2="25.8" y2="377"/>
					<line class="st0" x1="30.8" y1="335.1" x2="25.8" y2="335.1"/>
					<line class="st0" x1="30.8" y1="293.2" x2="25.8" y2="293.2"/>
					<line class="st0" x1="30.8" y1="251.3" x2="25.8" y2="251.3"/>
					<line class="st0" x1="30.8" y1="209.4" x2="25.8" y2="209.4"/>
					<line class="st0" x1="30.8" y1="167.6" x2="25.8" y2="167.6"/>
					<line class="st0" x1="30.8" y1="125.7" x2="25.8" y2="125.7"/>
					<line class="st0" x1="30.8" y1="83.8" x2="25.8" y2="83.8"/>
					<line class="st0" x1="30.8" y1="41.9" x2="25.8" y2="41.9"/>
					<line class="st0" x1="30.8" y1="0" x2="25.8" y2="0"/>
				</g>
				<g transform="translate(20.78125, 0)">
					<text transform="matrix(1 0 0 1 -6.5684 380.6)" class="st1 st2 st3">4</text>
					<text transform="matrix(1 0 0 1 -6.5684 338.7111)" class="st4 st2 st3">6</text>
					<text transform="matrix(1 0 0 1 -6.5684 296.8222)" class="st4 st2 st3">8</text>
					<text transform="matrix(1 0 0 1 -13.1367 254.9333)" class="st4 st2 st3">10</text>
					<text transform="matrix(1 0 0 1 -13.1367 213.0444)" class="st4 st2 st3">12</text>
					<text transform="matrix(1 0 0 1 -13.1367 171.1556)" class="st4 st2 st3">14</text>
					<text transform="matrix(1 0 0 1 -13.1367 129.2667)" class="st4 st2 st3">16</text>
					<text transform="matrix(1 0 0 1 -13.1367 87.3778)" class="st4 st2 st3">18</text>
					<text transform="matrix(1 0 0 1 -13.1367 45.4889)" class="st4 st2 st3">20</text>
					<text transform="matrix(1 0 0 1 -13.1367 3.6)" class="st1 st2 st3">22</text>
				</g>
				<line class="st0" x1="30.8" y1="0" x2="30.8" y2="377"/>
			</g>
		</g>
		<g>
			<defs>
				<rect id="SVGID_1_" x="30" y="0" width="1372" height="377"/>
			</defs>
			<clipPath id="SVGID_00000132054424578020083300000000225484054404742067_">
				<use xlink:href="#SVGID_1_"  style="overflow:visible;"/>
			</clipPath>
			<g transform="translate(30, 0)" style="clip-path:url(#SVGID_00000132054424578020083300000000225484054404742067_);">
				<g>
					<g>
						<g>
							<line class="st6" x1="0" y1="0" x2="0" y2="377"/>
							<line class="st6" x1="171.5" y1="0" x2="171.5" y2="377"/>
							<line class="st6" x1="343.1" y1="0" x2="343.1" y2="377"/>
							<line class="st6" x1="514.6" y1="0" x2="514.6" y2="377"/>
							<line class="st6" x1="686.1" y1="0" x2="686.1" y2="377"/>
							<line class="st6" x1="857.6" y1="0" x2="857.6" y2="377"/>
							<line class="st6" x1="1029.2" y1="0" x2="1029.2" y2="377"/>
							<line class="st6" x1="1200.7" y1="0" x2="1200.7" y2="377"/>
							<line class="st6" x1="1372.2" y1="0" x2="1372.2" y2="377"/>
						</g>
						<g>
							<line class="st6" x1="0" y1="377" x2="1372.2" y2="377"/>
							<line class="st6" x1="0" y1="335.1" x2="1372.2" y2="335.1"/>
							<line class="st6" x1="0" y1="293.2" x2="1372.2" y2="293.2"/>
							<line class="st6" x1="0" y1="251.3" x2="1372.2" y2="251.3"/>
							<line class="st6" x1="0" y1="209.4" x2="1372.2" y2="209.4"/>
							<line class="st6" x1="0" y1="167.6" x2="1372.2" y2="167.6"/>
							<line class="st6" x1="0" y1="125.7" x2="1372.2" y2="125.7"/>
							<line class="st6" x1="0" y1="83.8" x2="1372.2" y2="83.8"/>
							<line class="st6" x1="0" y1="41.9" x2="1372.2" y2="41.9"/>
							<line class="st6" x1="0" y1="0" x2="1372.2" y2="0"/>
						</g>
					</g>
				</g>
				<g>
					<g>
						<line class="st7" x1="0" y1="460.8" x2="1372.2" y2="460.8"/>
					</g>
				</g>
				<g>
					<g>
						<line class="st7" x1="171.5" y1="0" x2="171.5" y2="377"/>
					</g>
				</g>
				<g>
					<g>
						<g>
							<g>
								<g>
									<path class="st8" d="M188.7,29.1l17.2,38.6L223,106l17.2,30.8l17.2,34.9l17.2,33.6l17.2,24.1l17.2,29.2l17.2,8.7l17.2,17.4
										l17.2,5.7l17.2,8.5l17.2,4.4l17.2,1l17.2,8.2l17.2,1.2l17.2,3.8l17.2,0.3l17.2,8.2l17.2-0.3l17.2,2l17.2,3.7l17.2,3.8
										l17.2-2.6l17.2,1.9l17.2,2.1l17.2-1.6l17.2,9.5l17.2-4.5l17.2,1.9l17.2-0.3l17.2-1.8l17.2,6.1l17.2-3.5l17.2-2.8l17.2,6.6
										l17.2-2.5l17.2,1.6l17.2,3.2l17.2-1.6l17.2-0.9l17.2,0.7l17.2,1.4l17.2-2.1l17.2,3.4l17.2,0.1l17.2,1.2l17.2-4.9l17.2,3.7
										l17.2-1.8l17.2,2.9l17.2-1.4l17.2-2.3l17.2,4.9l17.2-2.8l17.2-0.3l17.2,1.4l17.2,0.2l17.2-1l17.2,1.5l17.2,0.7l17.2,1.7
										l17.2-1l17.2,0.4l17.2-1.3"/>
								</g>
								<g>
									<path class="st9" d="M188.7,47.3l17.2,39.5l17.2,22.9l17.2,41.7l17.2,53.6l17.2,33.3l17.2,39l17.2,1.9l17.2-30.6l17.2,55.4
										l17.2-16.5l17.2-1.4l17.2,3.6l17.2,22.2l17.2,7.6l17.2-12.1l17.2-5.7l17.2,24.4l17.2-8.9l17.2,15.6l17.2,0.9l17.2-2.5
										l17.2,1.9l17.2,0.6l17.2,2.4l17.2,4.1l17.2-11l17.2,11.8l17.2-1.9l17.2-6.9l17.2,11.3l17.2,3.4l17.2-8.3l17.2,12.9
										l17.2-34.4l17.2,33.1l17.2-8.3l17.2-0.4l17.2,6.5l17.2,6l17.2-13.7l17.2,7.8l17.2-9l17.2,9.8l17.2,5.6l17.2-3.2l17.2,4.9
										l17.2-7.4l17.2,8.1l17.2-0.6l17.2-0.7l17.2,1l17.2-86.1l17.2,82l17.2,5.7l17.2-4.5l17.2,1.8"/>
								</g>
							</g>
						</g>
					</g>
				</g>
			</g>
		</g>
		<g>
			<defs>
				<rect id="SVGID_00000062897220534487192810000015335353965291334576_" x="30" y="377" width="1372" height="23"/>
			</defs>
			<clipPath id="SVGID_00000168110406138180141980000007737844001458850236_">
				<use xlink:href="#SVGID_00000062897220534487192810000015335353965291334576_"  style="overflow:visible;"/>
			</clipPath>
			<g transform="translate(30, 377)" style="clip-path:url(#SVGID_00000168110406138180141980000007737844001458850236_);">
				<g>
					<g>
						<line class="st0" x1="0" y1="0" x2="0" y2="5"/>
						<line class="st0" x1="171.5" y1="0" x2="171.5" y2="5"/>
						<line class="st0" x1="343.1" y1="0" x2="343.1" y2="5"/>
						<line class="st0" x1="514.6" y1="0" x2="514.6" y2="5"/>
						<line class="st0" x1="686.1" y1="0" x2="686.1" y2="5"/>
						<line class="st0" x1="857.6" y1="0" x2="857.6" y2="5"/>
						<line class="st0" x1="1029.2" y1="0" x2="1029.2" y2="5"/>
						<line class="st0" x1="1200.7" y1="0" x2="1200.7" y2="5"/>
						<line class="st0" x1="1372.2" y1="0" x2="1372.2" y2="5"/>
					</g>
					<g transform="translate(0, 8)">
						<text transform="matrix(1 0 0 1 -8.3467 11.4)" class="st1 st2 st3">-10</text>
						<text transform="matrix(1 0 0 1 168.2432 11.4)" class="st4 st2 st3">0</text>
						<text transform="matrix(1 0 0 1 336.4863 11.4)" class="st4 st2 st3">10</text>
						<text transform="matrix(1 0 0 1 508.0137 11.4)" class="st4 st2 st3">20</text>
						<text transform="matrix(1 0 0 1 679.541 11.4)" class="st4 st2 st3">30</text>
						<text transform="matrix(1 0 0 1 851.0684 11.4)" class="st4 st2 st3">40</text>
						<text transform="matrix(1 0 0 1 1022.5957 11.4)" class="st4 st2 st3">50</text>
						<text transform="matrix(1 0 0 1 1194.123 11.4)" class="st4 st2 st3">60</text>
						<text transform="matrix(1 0 0 1 1365.6504 11.4)" class="st1 st2 st3">70</text>
					</g>
					<line class="st0" x1="0" y1="0" x2="1372.2" y2="0"/>
				</g>
			</g>
		</g>
	</g>
</g>
<rect x="1085.3" y="29.1" class="st11" width="265.3" height="99.2"/>
<text transform="matrix(1 0 0 1 1158.5315 63.7709)" class="st12 st13">ter_metric_bs_4</text>
<text transform="matrix(1 0 0 1 1158.1178 102.7049)" class="st12 st13">no_eval_bs_4</text>
<line class="st8" x1="1101.4" y1="56.1" x2="1136.3" y2="56.1"/>
<line class="st9" x1="1101.4" y1="97.2" x2="1136.3" y2="97.2"/>
</svg>
