<?xml version="1.0" encoding="utf-8"?>
<!-- Generator: Adobe Illustrator 26.0.1, SVG Export Plug-In . SVG Version: 6.00 Build 0)  -->
<svg version="1.1" id="Layer_1" xmlns="http://www.w3.org/2000/svg" xmlns:xlink="http://www.w3.org/1999/xlink" x="0px" y="0px"
	 viewBox="0 0 1403 400" style="enable-background:new 0 0 1403 400;" xml:space="preserve">
<style type="text/css">
	.st0{fill:none;stroke:#CCCCCC;}
	.st1{display:none;fill:#212121;enable-background:new    ;}
	.st2{font-family:calibri;}
	.st3{font-size:12px;}
	.st4{fill:#212121;}
	.st5{clip-path:url(#SVGID_00000008857709379816222810000017854560006675660437_);}
	.st6{opacity:0.25;fill:none;stroke:#424242;enable-background:new    ;}
	.st7{fill:none;stroke:#999999;stroke-width:1.5;}
	.st8{fill:none;stroke:#0077BB;stroke-width:2;}
	.st9{fill:none;stroke:#CC3311;stroke-width:2;}
	.st10{clip-path:url(#SVGID_00000011711910603234333430000005443602685102470024_);}
	.st11{fill:#FFFFFF;stroke:#000000;stroke-miterlimit:10;}
	.st12{font-family:calibri;}
	.st13{font-size:21px;}
	.st14{fill:none;stroke:#C90000;stroke-width:2;}
</style>
<g>
	<g>
		<g>
			<g>
				<g>
					<line class="st0" x1="30.8" y1="377" x2="25.8" y2="377"/>
					<line class="st0" x1="30.8" y1="342.7" x2="25.8" y2="342.7"/>
					<line class="st0" x1="30.8" y1="308.5" x2="25.8" y2="308.5"/>
					<line class="st0" x1="30.8" y1="274.2" x2="25.8" y2="274.2"/>
					<line class="st0" x1="30.8" y1="239.9" x2="25.8" y2="239.9"/>
					<line class="st0" x1="30.8" y1="205.6" x2="25.8" y2="205.6"/>
					<line class="st0" x1="30.8" y1="171.4" x2="25.8" y2="171.4"/>
					<line class="st0" x1="30.8" y1="137.1" x2="25.8" y2="137.1"/>
					<line class="st0" x1="30.8" y1="102.8" x2="25.8" y2="102.8"/>
					<line class="st0" x1="30.8" y1="68.5" x2="25.8" y2="68.5"/>
					<line class="st0" x1="30.8" y1="34.3" x2="25.8" y2="34.3"/>
					<line class="st0" x1="30.8" y1="0" x2="25.8" y2="0"/>
				</g>
				<g transform="translate(20.78125, 0)">
					<text transform="matrix(1 0 0 1 -6.5684 380.6)" class="st1 st2 st3">0</text>
					<text transform="matrix(1 0 0 1 -6.5684 346.3273)" class="st4 st2 st3">2</text>
					<text transform="matrix(1 0 0 1 -6.5684 312.0546)" class="st4 st2 st3">4</text>
					<text transform="matrix(1 0 0 1 -6.5684 277.7818)" class="st4 st2 st3">6</text>
					<text transform="matrix(1 0 0 1 -6.5684 243.5091)" class="st4 st2 st3">8</text>
					<text transform="matrix(1 0 0 1 -13.1367 209.2364)" class="st4 st2 st3">10</text>
					<text transform="matrix(1 0 0 1 -13.1367 174.9636)" class="st4 st2 st3">12</text>
					<text transform="matrix(1 0 0 1 -13.1367 140.6909)" class="st4 st2 st3">14</text>
					<text transform="matrix(1 0 0 1 -13.1367 106.4182)" class="st4 st2 st3">16</text>
					<text transform="matrix(1 0 0 1 -13.1367 72.1454)" class="st4 st2 st3">18</text>
					<text transform="matrix(1 0 0 1 -13.1367 37.8727)" class="st4 st2 st3">20</text>
					<text transform="matrix(1 0 0 1 -13.1367 3.6)" class="st1 st2 st3">22</text>
				</g>
				<line class="st0" x1="30.8" y1="0" x2="30.8" y2="377"/>
			</g>
		</g>
		<g>
			<defs>
				<rect id="SVGID_1_" x="30" y="0" width="1372" height="377"/>
			</defs>
			<clipPath id="SVGID_00000033362998902190247860000012374567717995333525_">
				<use xlink:href="#SVGID_1_"  style="overflow:visible;"/>
			</clipPath>
			<g transform="translate(30, 0)" style="clip-path:url(#SVGID_00000033362998902190247860000012374567717995333525_);">
				<g>
					<g>
						<g>
							<line class="st6" x1="0" y1="0" x2="0" y2="377"/>
							<line class="st6" x1="91.5" y1="0" x2="91.5" y2="377"/>
							<line class="st6" x1="183" y1="0" x2="183" y2="377"/>
							<line class="st6" x1="274.4" y1="0" x2="274.4" y2="377"/>
							<line class="st6" x1="365.9" y1="0" x2="365.9" y2="377"/>
							<line class="st6" x1="457.4" y1="0" x2="457.4" y2="377"/>
							<line class="st6" x1="548.9" y1="0" x2="548.9" y2="377"/>
							<line class="st6" x1="640.4" y1="0" x2="640.4" y2="377"/>
							<line class="st6" x1="731.8" y1="0" x2="731.8" y2="377"/>
							<line class="st6" x1="823.3" y1="0" x2="823.3" y2="377"/>
							<line class="st6" x1="914.8" y1="0" x2="914.8" y2="377"/>
							<line class="st6" x1="1006.3" y1="0" x2="1006.3" y2="377"/>
							<line class="st6" x1="1097.8" y1="0" x2="1097.8" y2="377"/>
							<line class="st6" x1="1189.3" y1="0" x2="1189.3" y2="377"/>
							<line class="st6" x1="1280.7" y1="0" x2="1280.7" y2="377"/>
							<line class="st6" x1="1372.2" y1="0" x2="1372.2" y2="377"/>
						</g>
						<g>
							<line class="st6" x1="0" y1="377" x2="1372.2" y2="377"/>
							<line class="st6" x1="0" y1="342.7" x2="1372.2" y2="342.7"/>
							<line class="st6" x1="0" y1="308.5" x2="1372.2" y2="308.5"/>
							<line class="st6" x1="0" y1="274.2" x2="1372.2" y2="274.2"/>
							<line class="st6" x1="0" y1="239.9" x2="1372.2" y2="239.9"/>
							<line class="st6" x1="0" y1="205.6" x2="1372.2" y2="205.6"/>
							<line class="st6" x1="0" y1="171.4" x2="1372.2" y2="171.4"/>
							<line class="st6" x1="0" y1="137.1" x2="1372.2" y2="137.1"/>
							<line class="st6" x1="0" y1="102.8" x2="1372.2" y2="102.8"/>
							<line class="st6" x1="0" y1="68.5" x2="1372.2" y2="68.5"/>
							<line class="st6" x1="0" y1="34.3" x2="1372.2" y2="34.3"/>
							<line class="st6" x1="0" y1="0" x2="1372.2" y2="0"/>
						</g>
					</g>
				</g>
				<g>
					<g>
						<line class="st7" x1="0" y1="377" x2="1372.2" y2="377"/>
					</g>
				</g>
				<g>
					<g>
						<line class="st7" x1="91.5" y1="0" x2="91.5" y2="377"/>
					</g>
				</g>
				<g>
					<g>
						<g>
							<g>
								<g>
									<path class="st8" d="M96.1,23.5l4.6,45.8l4.6,27l4.6,33.8l4.6,34.5l4.6,24.3l4.6,31.2l4.6-2.4l4.6-4.1l4.6,32l4.6-18.1
										l4.6,23.4l4.6-10.8l4.6,8l4.6-11.3l4.6,17.8l4.6,4l4.6,2.8l4.6,6.4l4.6-3.6l4.6,3.9l4.6-0.1l4.6,1.8l4.6,2.7l4.6-10.4
										l4.6,9.7l4.6,2.4l4.6-3.8l4.6,2.1l4.6-2.9l4.6-4.2l4.6,12.7l4.6,2.8l4.6-9.9l4.6,2.8l4.6,7.6l4.6-6.7l4.6,1l4.6,1.4
										l4.6-12.5l4.6,18.8l4.6,2.1l4.6-4.2l4.6-6.4l4.6,9.7l4.6,1.2l4.6-18l4.6,13.5l4.6-2.9l4.6,5.5l4.6,3.3l4.6-1l4.6,1l4.6,4
										l4.6,7.2l4.6-10.7l4.6-8.4l4.6,8.3l4.6,14l4.6-6.2l4.6-4.6l4.6-9.9l4.6,8.9l4.6-7l4.6,4.6l4.6,0.8l4.6-2.8l4.6,6l4.6,2.4
										l4.6,6.2l4.6-2.5l4.6-26.4l4.6,20.8l4.6,6l4.6-5.2l4.6,4.5l4.6-8l4.6,4.6l4.6-0.6l4.6-1.4l4.6,4l4.6,2.1l4.6-5.6l4.6,4.6
										l4.6-9.9l4.6,10.5l4.6-0.9l4.6-3.3l4.6-15.6l4.6,20.9l4.6-9.5l4.6,1.7l4.6,10.4l4.6-11.5L526,300l4.6-5.5l4.6,2l4.6,1
										l4.6,1.6l4.6-0.3l4.6-2.3l4.6,0.3l4.6,4.6l4.6,1.4l4.6-9.3l4.6,7.3l4.6,3.4l4.6-0.2l4.6-18.8l4.6,18.1l4.6,2.9l4.6,0.7
										l4.6-8l4.6,4.4l4.6,3.3l4.6-5.1l4.6,7.7l4.6-5.3l4.6,5.5l4.6-8.5l4.6-4.4l4.6,10.8l4.6-11.4l4.6,11.8l4.6-19.6l4.6,15.8
										l4.6,2.2l4.6-10.7l4.6,14.1l4.6-9.3l4.6,11.6l4.6-6l4.6-0.8l4.6,0.2l4.6,12.5l4.6-16.7l4.6,8.2l4.6-4.7l4.6-9.4l4.6,7.3
										l4.6-4.3l4.6,1.4l4.6,11.7l4.6-7.3l4.6,0l4.6,6l4.6-34l4.6,32.1l4.6-8.7l4.6,14.8l4.6-16.1l4.6,11.7l4.6-3.4l4.6,1.8
										l4.6-1.1l4.6-5.8l4.6-4l4.6,5.5l4.6,2.3l4.6,12.1l4.6-3.4l4.6,6.9l4.6-10.3l4.6-4.5l4.6,1.6l4.6,7.2l4.6,0.3l4.6-6.3
										l4.6-5.3l4.6-8.1l4.6,3.5l4.6,5.8l4.6,3.7l4.6-2.8l4.6,1.3l4.6,0.9l4.6,1.3l4.6-1.6l4.6-2.8l4.6,14.8l4.6-10.9l4.6,8.6
										l4.6-1.9l4.6-18l4.6,15.6l4.6-1.3l4.6-4.9l4.6,4.3l4.6,3.3l4.6,2.4l4.6-6.8l4.6-5.2l4.6,14.1l4.6-8.2l4.6-6.2l4.6-5.1
										l4.6,5.5l4.6,4.6l4.6,1.4l4.6,7.3l4.6-5.5l4.6,3.7l4.6-5.6l4.6,6.5l4.6-9.6l4.6,2.5l4.6,4.7l4.6-6.7l4.6,3.4l4.6,2.7
										l4.6-4.6l4.6,2.9l4.6,0.3l4.6,3.3l4.6-1.4l4.6,0.9l4.6-11.3l4.6,9.3l4.6,2.1l4.6,3.2l4.6-5.2l4.6-6l4.6,2.1l4.6,0.1
										l4.6,9.7l4.6-14.2l4.6,9.4l4.6,2l4.6-8.9l4.6,4.5l4.6,3.8l4.6-10l4.6,8.2l4.6-1.5l4.6,8.7l4.6-17.4l4.6,12.6l4.6-0.9
										l4.6-0.8l4.6-7.5l4.6,4.4l4.6,4.8l4.6,0.8l4.6-10l4.6-1.4l4.6,9.5l4.6-5.9l4.6,8.3l4.6-10.3l4.6,7.4l4.6-4.6l4.6,3.2
										l4.6,3.3l4.6-0.3l4.6-3.4l4.6,0.3l4.6,8.3l4.6-7.1l4.6,7l4.6-4.1"/>
								</g>
								<g>
									<path class="st9" d="M96.1,23.6l4.6,50.1l4.6,9.3l4.6,43l4.6,20.5l4.6,23.9l4.6,17.2l4.6,16.8l4.6,23.2l4.6,4.2l4.6-5.5
										l4.6,15.1l4.6,9.8l4.6-5.6l4.6,1.7l4.6,5.8l4.6-7.6l4.6,9.3l4.6,0.3l4.6,6.6l4.6,2.1l4.6-0.3l4.6,0.8l4.6-1.8l4.6,10.8
										l4.6-2.7l4.6,4l4.6-1l4.6,3.6l4.6-1.5l4.6,3.9l4.6-0.3l4.6-6.3l4.6,0.4l4.6,9.7l4.6,2.6l4.6-5.2l4.6-4.3l4.6,4.5l4.6,3.3
										l4.6-1.7l4.6-0.6l4.6-0.9l4.6,2.9l4.6-2.9l4.6,1.5l4.6,1.1l4.6-10.1l4.6,14.2l4.6,0.1l4.6,1.5l4.6-0.3l4.6-1.8l4.6,8.9
										l4.6-4.7l4.6,4.5l4.6-2l4.6,1.6l4.6,0.5l4.6-3.5l4.6,4.3l4.6,4l4.6-3.1l4.6,2.6l4.6-2.9l4.6-8.7l4.6,3.4l4.6,8.3l4.6-6.4
										l4.6,10.8l4.6,0.9l4.6-4.3l4.6-2.2l4.6-6.6l4.6,5l4.6,8.9l4.6-11.7l4.6-3l4.6,7.6l4.6,1.7l4.6,0.4l4.6-12l4.6,5.5l4.6,4.2
										l4.6,0.6l4.6,3.4l4.6,1.3l4.6,0.2l4.6-38.1l4.6,41.7l4.6-8.3l4.6,0.9l4.6-2l4.6-5.6l4.6,8.6l4.6-2.4l4.6,7.7l4.6-7.7
										l4.6-18.3l4.6,17l4.6,5.9l4.6,11.8l4.6-14.1l4.6,6.9l4.6-18.1l4.6,15.1l4.6,9l4.6-6.2l4.6,2.5l4.6,2.7l4.6,1l4.6-4.4
										l4.6-31.1l4.6,37.5l4.6-8.2l4.6,4.6l4.6-1.7l4.6,0.6l4.6-10.9l4.6,4.4l4.6,2.9l4.6-4l4.6,1.2l4.6-8.2l4.6,14.5l4.6-3.9
										l4.6,11.7l4.6-9.4l4.6-1.9l4.6-1.4l4.6-5.5l4.6,3.1l4.6-3.7l4.6,16.4l4.6-10.2l4.6,0.6l4.6,10.5l4.6-6.6l4.6-7.4l4.6,5.3
										l4.6-0.3l4.6,1.9l4.6-8.6l4.6,14.4l4.6-22.4l4.6,17.8l4.6-5.9l4.6,5.6l4.6-0.4l4.6-4.8l4.6,1.4l4.6-3.9l4.6,6l4.6,0.8
										l4.6,4.6l4.6,7l4.6-12.5l4.6,8l4.6-1.2l4.6-11.2l4.6,7l4.6,6.1l4.6,6.7l4.6,5.5l4.6-21.1l4.6,16l4.6-10.5l4.6-3.3l4.6-6.1
										l4.6,3.2l4.6-0.2l4.6-8.2l4.6,14.2l4.6,4.4l4.6,3l4.6-14.5l4.6,3.7l4.6-5.6l4.6,2.9l4.6,1.5l4.6,7.9l4.6-6.5l4.6,10.7
										l4.6-6.8l4.6,7.6l4.6-19.6l4.6,8.4l4.6-0.5l4.6,3.1l4.6,5.7l4.6,0.1l4.6,2.1l4.6-7l4.6,4.8l4.6-3.8l4.6-8.1l4.6,13.8
										l4.6-8.4l4.6-0.3l4.6-0.8l4.6-1.1l4.6,7.7l4.6-11.3l4.6,11.8l4.6-1l4.6-2.4l4.6,6.6l4.6-8.3l4.6,5.3l4.6,4.8l4.6-12.7
										l4.6,5.9l4.6-17.5l4.6,15.4l4.6,0l4.6,0.3l4.6,3.7l4.6-0.1l4.6-7l4.6,6.9l4.6,6.2l4.6-13.1l4.6,7.8l4.6-2l4.6,3.6l4.6-10.2
										l4.6-9.5l4.6,15.2l4.6,5l4.6-1.1l4.6-2.9l4.6,5.2l4.6,3.2l4.6-4.9l4.6-3.7l4.6,0.3l4.6,2.2l4.6-8.7l4.6,3l4.6-4.2l4.6,8
										l4.6,2.7l4.6-2.1l4.6,3.3l4.6,5l4.6-2.5l4.6-4.7l4.6-9.1l4.6,4.2l4.6,3.8l4.6,3.1l4.6,1.2l4.6,0.9l4.6-4.3l4.6-4l4.6,1.6
										l4.6,12.2l4.6-9.8l4.6-9.5l4.6,11.1"/>
								</g>
							</g>
						</g>
					</g>
				</g>
			</g>
		</g>
		<g>
			<defs>
				<rect id="SVGID_00000119087233901411497400000011307808049292926350_" x="30" y="377" width="1372" height="23"/>
			</defs>
			<clipPath id="SVGID_00000039812462707762511710000004839249345942392977_">
				<use xlink:href="#SVGID_00000119087233901411497400000011307808049292926350_"  style="overflow:visible;"/>
			</clipPath>
			<g transform="translate(30, 377)" style="clip-path:url(#SVGID_00000039812462707762511710000004839249345942392977_);">
				<g>
					<g>
						<line class="st0" x1="0" y1="0" x2="0" y2="5"/>
						<line class="st0" x1="91.5" y1="0" x2="91.5" y2="5"/>
						<line class="st0" x1="183" y1="0" x2="183" y2="5"/>
						<line class="st0" x1="274.4" y1="0" x2="274.4" y2="5"/>
						<line class="st0" x1="365.9" y1="0" x2="365.9" y2="5"/>
						<line class="st0" x1="457.4" y1="0" x2="457.4" y2="5"/>
						<line class="st0" x1="548.9" y1="0" x2="548.9" y2="5"/>
						<line class="st0" x1="640.4" y1="0" x2="640.4" y2="5"/>
						<line class="st0" x1="731.8" y1="0" x2="731.8" y2="5"/>
						<line class="st0" x1="823.3" y1="0" x2="823.3" y2="5"/>
						<line class="st0" x1="914.8" y1="0" x2="914.8" y2="5"/>
						<line class="st0" x1="1006.3" y1="0" x2="1006.3" y2="5"/>
						<line class="st0" x1="1097.8" y1="0" x2="1097.8" y2="5"/>
						<line class="st0" x1="1189.3" y1="0" x2="1189.3" y2="5"/>
						<line class="st0" x1="1280.7" y1="0" x2="1280.7" y2="5"/>
						<line class="st0" x1="1372.2" y1="0" x2="1372.2" y2="5"/>
					</g>
					<g transform="translate(0, 8)">
						<text transform="matrix(1 0 0 1 -8.3467 11.4)" class="st1 st2 st3">-20</text>
						<text transform="matrix(1 0 0 1 88.1971 11.4)" class="st4 st2 st3">0</text>
						<text transform="matrix(1 0 0 1 176.3941 11.4)" class="st4 st2 st3">20</text>
						<text transform="matrix(1 0 0 1 267.8754 11.4)" class="st4 st2 st3">40</text>
						<text transform="matrix(1 0 0 1 359.3566 11.4)" class="st4 st2 st3">60</text>
						<text transform="matrix(1 0 0 1 450.8379 11.4)" class="st4 st2 st3">80</text>
						<text transform="matrix(1 0 0 1 539.035 11.4)" class="st4 st2 st3">100</text>
						<text transform="matrix(1 0 0 1 630.5162 11.4)" class="st4 st2 st3">120</text>
						<text transform="matrix(1 0 0 1 721.9974 11.4)" class="st4 st2 st3">140</text>
						<text transform="matrix(1 0 0 1 813.4787 11.4)" class="st4 st2 st3">160</text>
						<text transform="matrix(1 0 0 1 904.96 11.4)" class="st4 st2 st3">180</text>
						<text transform="matrix(1 0 0 1 996.4412 11.4)" class="st4 st2 st3">200</text>
						<text transform="matrix(1 0 0 1 1087.9225 11.4)" class="st4 st2 st3">220</text>
						<text transform="matrix(1 0 0 1 1179.4037 11.4)" class="st4 st2 st3">240</text>
						<text transform="matrix(1 0 0 1 1270.885 11.4)" class="st4 st2 st3">260</text>
						<text transform="matrix(1 0 0 1 1362.3662 11.4)" class="st1 st2 st3">280</text>
					</g>
					<line class="st0" x1="0" y1="0" x2="1372.2" y2="0"/>
				</g>
			</g>
		</g>
	</g>
</g>
<rect x="1097.7" y="37.9" class="st11" width="265.3" height="99.2"/>
<text transform="matrix(1 0 0 1 1170.929 72.5273)" class="st12 st13">ter_metric_bs_1</text>
<text transform="matrix(1 0 0 1 1170.5153 111.4613)" class="st12 st13">rouge_metric_bs_1</text>
<line class="st8" x1="1113.8" y1="64.8" x2="1148.7" y2="64.8"/>
<line class="st14" x1="1113.8" y1="106" x2="1148.7" y2="106"/>
</svg>
