<?xml version="1.0" encoding="utf-8"?>
<!-- Generator: Adobe Illustrator 26.0.1, SVG Export Plug-In . SVG Version: 6.00 Build 0)  -->
<svg version="1.1" id="Layer_1" xmlns="http://www.w3.org/2000/svg" xmlns:xlink="http://www.w3.org/1999/xlink" x="0px" y="0px"
	 viewBox="0 0 1403 400" style="enable-background:new 0 0 1403 400;" xml:space="preserve">
<style type="text/css">
	.st0{fill:none;stroke:#CCCCCC;}
	.st1{display:none;fill:#212121;enable-background:new    ;}
	.st2{font-family:calibri;}
	.st3{font-size:12px;}
	.st4{fill:#212121;}
	.st5{clip-path:url(#SVGID_00000047036424589691773480000016568563600599694998_);}
	.st6{opacity:0.25;fill:none;stroke:#424242;enable-background:new    ;}
	.st7{fill:none;stroke:#999999;stroke-width:1.5;}
	.st8{fill:none;stroke:#C900DF;stroke-width:2;}
	.st9{clip-path:url(#SVGID_00000024704184877890863580000005247999367133126331_);}
	.st10{fill:#FFFFFF;stroke:#000000;stroke-miterlimit:10;}
	.st11{font-family:calibri;}
	.st12{font-size:21px;}
</style>
<g>
	<g>
		<g>
			<g>
				<g>
					<line class="st0" x1="30.8" y1="377" x2="25.8" y2="377"/>
					<line class="st0" x1="30.8" y1="335.1" x2="25.8" y2="335.1"/>
					<line class="st0" x1="30.8" y1="293.2" x2="25.8" y2="293.2"/>
					<line class="st0" x1="30.8" y1="251.3" x2="25.8" y2="251.3"/>
					<line class="st0" x1="30.8" y1="209.4" x2="25.8" y2="209.4"/>
					<line class="st0" x1="30.8" y1="167.6" x2="25.8" y2="167.6"/>
					<line class="st0" x1="30.8" y1="125.7" x2="25.8" y2="125.7"/>
					<line class="st0" x1="30.8" y1="83.8" x2="25.8" y2="83.8"/>
					<line class="st0" x1="30.8" y1="41.9" x2="25.8" y2="41.9"/>
					<line class="st0" x1="30.8" y1="0" x2="25.8" y2="0"/>
				</g>
				<g transform="translate(20.78125, 0)">
					<text transform="matrix(1 0 0 1 -6.5684 380.6)" class="st1 st2 st3">4</text>
					<text transform="matrix(1 0 0 1 -6.5684 338.7111)" class="st4 st2 st3">6</text>
					<text transform="matrix(1 0 0 1 -6.5684 296.8222)" class="st4 st2 st3">8</text>
					<text transform="matrix(1 0 0 1 -13.1367 254.9333)" class="st4 st2 st3">10</text>
					<text transform="matrix(1 0 0 1 -13.1367 213.0444)" class="st4 st2 st3">12</text>
					<text transform="matrix(1 0 0 1 -13.1367 171.1556)" class="st4 st2 st3">14</text>
					<text transform="matrix(1 0 0 1 -13.1367 129.2667)" class="st4 st2 st3">16</text>
					<text transform="matrix(1 0 0 1 -13.1367 87.3778)" class="st4 st2 st3">18</text>
					<text transform="matrix(1 0 0 1 -13.1367 45.4889)" class="st4 st2 st3">20</text>
					<text transform="matrix(1 0 0 1 -13.1367 3.6)" class="st1 st2 st3">22</text>
				</g>
				<line class="st0" x1="30.8" y1="0" x2="30.8" y2="377"/>
			</g>
		</g>
		<g>
			<defs>
				<rect id="SVGID_1_" x="30" y="0" width="1372" height="377"/>
			</defs>
			<clipPath id="SVGID_00000062186313037854579060000016173205827446938256_">
				<use xlink:href="#SVGID_1_"  style="overflow:visible;"/>
			</clipPath>
			<g transform="translate(30, 0)" style="clip-path:url(#SVGID_00000062186313037854579060000016173205827446938256_);">
				<g>
					<g>
						<g>
							<line class="st6" x1="0" y1="0" x2="0" y2="377"/>
							<line class="st6" x1="196" y1="0" x2="196" y2="377"/>
							<line class="st6" x1="392.1" y1="0" x2="392.1" y2="377"/>
							<line class="st6" x1="588.1" y1="0" x2="588.1" y2="377"/>
							<line class="st6" x1="784.1" y1="0" x2="784.1" y2="377"/>
							<line class="st6" x1="980.2" y1="0" x2="980.2" y2="377"/>
							<line class="st6" x1="1176.2" y1="0" x2="1176.2" y2="377"/>
							<line class="st6" x1="1372.2" y1="0" x2="1372.2" y2="377"/>
						</g>
						<g>
							<line class="st6" x1="0" y1="377" x2="1372.2" y2="377"/>
							<line class="st6" x1="0" y1="335.1" x2="1372.2" y2="335.1"/>
							<line class="st6" x1="0" y1="293.2" x2="1372.2" y2="293.2"/>
							<line class="st6" x1="0" y1="251.3" x2="1372.2" y2="251.3"/>
							<line class="st6" x1="0" y1="209.4" x2="1372.2" y2="209.4"/>
							<line class="st6" x1="0" y1="167.6" x2="1372.2" y2="167.6"/>
							<line class="st6" x1="0" y1="125.7" x2="1372.2" y2="125.7"/>
							<line class="st6" x1="0" y1="83.8" x2="1372.2" y2="83.8"/>
							<line class="st6" x1="0" y1="41.9" x2="1372.2" y2="41.9"/>
							<line class="st6" x1="0" y1="0" x2="1372.2" y2="0"/>
						</g>
					</g>
				</g>
				<g>
					<g>
						<line class="st7" x1="0" y1="460.8" x2="1372.2" y2="460.8"/>
					</g>
				</g>
				<g>
					<g>
						<line class="st7" x1="0" y1="0" x2="0" y2="377"/>
					</g>
				</g>
				<g>
					<g>
						<g>
							<g>
								<g>
									<path class="st8" d="M39.2,39.2l39.2,54l39.2,47.3l39.2,38.2l39.2,36.1l39.2,32.3l39.2,16.7l39.2,17l39.2,5l39.2,9.1
										l39.2,3.3l39.2,6l39.2,5.8l39.2,2.5l39.2,1.8l39.2,4.5l39.2,4.7l39.2,1l39.2,1.6l39.2,2.1l39.2,2.6l39.2,0.4l39.2,2.2
										l39.2,0.4l39.2,1.7l39.2-1.3l39.2,2.2l39.2-0.5l39.2,2.1l39.2-1.7"/>
								</g>
							</g>
						</g>
					</g>
				</g>
			</g>
		</g>
		<g>
			<defs>
				<rect id="SVGID_00000003067684135668590120000010464633605112709558_" x="30" y="377" width="1372" height="23"/>
			</defs>
			<clipPath id="SVGID_00000096034971975360214290000013396925483075461560_">
				<use xlink:href="#SVGID_00000003067684135668590120000010464633605112709558_"  style="overflow:visible;"/>
			</clipPath>
			<g transform="translate(30, 377)" style="clip-path:url(#SVGID_00000096034971975360214290000013396925483075461560_);">
				<g>
					<g>
						<line class="st0" x1="0" y1="0" x2="0" y2="5"/>
						<line class="st0" x1="196" y1="0" x2="196" y2="5"/>
						<line class="st0" x1="392.1" y1="0" x2="392.1" y2="5"/>
						<line class="st0" x1="588.1" y1="0" x2="588.1" y2="5"/>
						<line class="st0" x1="784.1" y1="0" x2="784.1" y2="5"/>
						<line class="st0" x1="980.2" y1="0" x2="980.2" y2="5"/>
						<line class="st0" x1="1176.2" y1="0" x2="1176.2" y2="5"/>
						<line class="st0" x1="1372.2" y1="0" x2="1372.2" y2="5"/>
					</g>
					<g transform="translate(0, 8)">
						<text transform="matrix(1 0 0 1 -3.2842 11.4)" class="st1 st2 st3">0</text>
						<text transform="matrix(1 0 0 1 192.7471 11.4)" class="st4 st2 st3">5</text>
						<text transform="matrix(1 0 0 1 385.4941 11.4)" class="st4 st2 st3">10</text>
						<text transform="matrix(1 0 0 1 581.5254 11.4)" class="st4 st2 st3">15</text>
						<text transform="matrix(1 0 0 1 777.5566 11.4)" class="st4 st2 st3">20</text>
						<text transform="matrix(1 0 0 1 973.5879 11.4)" class="st4 st2 st3">25</text>
						<text transform="matrix(1 0 0 1 1169.6191 11.4)" class="st4 st2 st3">30</text>
						<text transform="matrix(1 0 0 1 1365.6504 11.4)" class="st1 st2 st3">35</text>
					</g>
					<line class="st0" x1="0" y1="0" x2="1372.2" y2="0"/>
				</g>
			</g>
		</g>
	</g>
</g>
<rect x="1079.4" y="21.4" class="st10" width="224.9" height="49.6"/>
<text transform="matrix(1 0 0 1 1152.1388 51.088)" class="st11 st12">no_eval_bs_8</text>
<line class="st8" x1="1095.4" y1="45.6" x2="1130.3" y2="45.6"/>
</svg>
