<svg viewBox="0 0 1403 400" xmlns="http://www.w3.org/2000/svg"><g><g><g><g><g><line x1="70" y1="377" x2="65" y2="377" style="visibility: inherit;" fill="rgb(0, 0, 0)" stroke="rgb(204, 204, 204)" stroke-width="1px"></line><line x1="70" y1="335.1111111111111" x2="65" y2="335.1111111111111" style="visibility: inherit;" fill="rgb(0, 0, 0)" stroke="rgb(204, 204, 204)" stroke-width="1px"></line><line x1="70" y1="293.22222222222223" x2="65" y2="293.22222222222223" style="visibility: inherit;" fill="rgb(0, 0, 0)" stroke="rgb(204, 204, 204)" stroke-width="1px"></line><line x1="70" y1="251.33333333333337" x2="65" y2="251.33333333333337" style="visibility: inherit;" fill="rgb(0, 0, 0)" stroke="rgb(204, 204, 204)" stroke-width="1px"></line><line x1="70" y1="209.44444444444454" x2="65" y2="209.44444444444454" style="visibility: inherit;" fill="rgb(0, 0, 0)" stroke="rgb(204, 204, 204)" stroke-width="1px"></line><line x1="70" y1="167.55555555555554" x2="65" y2="167.55555555555554" style="visibility: inherit;" fill="rgb(0, 0, 0)" stroke="rgb(204, 204, 204)" stroke-width="1px"></line><line x1="70" y1="125.66666666666677" x2="65" y2="125.66666666666677" style="visibility: inherit;" fill="rgb(0, 0, 0)" stroke="rgb(204, 204, 204)" stroke-width="1px"></line><line x1="70" y1="83.77777777777777" x2="65" y2="83.77777777777777" style="visibility: inherit;" fill="rgb(0, 0, 0)" stroke="rgb(204, 204, 204)" stroke-width="1px"></line><line x1="70" y1="41.88888888888899" x2="65" y2="41.88888888888899" style="visibility: inherit;" fill="rgb(0, 0, 0)" stroke="rgb(204, 204, 204)" stroke-width="1px"></line><line x1="70" y1="0" x2="65" y2="0" style="visibility: inherit;" fill="rgb(0, 0, 0)" stroke="rgb(204, 204, 204)" stroke-width="1px"></line></g><g transform="translate(60, 0)"><text x="0" y="377" dx="0em" dy="0.3em" style="text-anchor: end; visibility: hidden; font-family: Roboto, sans-serif; font-size: 12px; font-weight: 200;" fill="rgb(33, 33, 33)" stroke="none" stroke-width="1px">2.2e-4</text><text x="0" y="335.1111111111111" dx="0em" dy="0.3em" style="text-anchor: end; visibility: inherit; font-family: Roboto, sans-serif; font-size: 12px; font-weight: 200;" fill="rgb(33, 33, 33)" stroke="none" stroke-width="1px">2.3e-4</text><text x="0" y="293.22222222222223" dx="0em" dy="0.3em" style="text-anchor: end; visibility: inherit; font-family: Roboto, sans-serif; font-size: 12px; font-weight: 200;" fill="rgb(33, 33, 33)" stroke="none" stroke-width="1px">2.4e-4</text><text x="0" y="251.33333333333337" dx="0em" dy="0.3em" style="text-anchor: end; visibility: inherit; font-family: Roboto, sans-serif; font-size: 12px; font-weight: 200;" fill="rgb(33, 33, 33)" stroke="none" stroke-width="1px">2.5e-4</text><text x="0" y="209.44444444444454" dx="0em" dy="0.3em" style="text-anchor: end; visibility: inherit; font-family: Roboto, sans-serif; font-size: 12px; font-weight: 200;" fill="rgb(33, 33, 33)" stroke="none" stroke-width="1px">2.6e-4</text><text x="0" y="167.55555555555554" dx="0em" dy="0.3em" style="text-anchor: end; visibility: inherit; font-family: Roboto, sans-serif; font-size: 12px; font-weight: 200;" fill="rgb(33, 33, 33)" stroke="none" stroke-width="1px">2.7e-4</text><text x="0" y="125.66666666666677" dx="0em" dy="0.3em" style="text-anchor: end; visibility: inherit; font-family: Roboto, sans-serif; font-size: 12px; font-weight: 200;" fill="rgb(33, 33, 33)" stroke="none" stroke-width="1px">2.8e-4</text><text x="0" y="83.77777777777777" dx="0em" dy="0.3em" style="text-anchor: end; visibility: inherit; font-family: Roboto, sans-serif; font-size: 12px; font-weight: 200;" fill="rgb(33, 33, 33)" stroke="none" stroke-width="1px">2.9e-4</text><text x="0" y="41.88888888888899" dx="0em" dy="0.3em" style="text-anchor: end; visibility: inherit; font-family: Roboto, sans-serif; font-size: 12px; font-weight: 200;" fill="rgb(33, 33, 33)" stroke="none" stroke-width="1px">3e-4</text><text x="0" y="0" dx="0em" dy="0.3em" style="text-anchor: end; visibility: hidden; font-family: Roboto, sans-serif; font-size: 12px; font-weight: 200;" fill="rgb(33, 33, 33)" stroke="none" stroke-width="1px">3.1e-4</text></g><line x1="70" y1="0" x2="70" y2="377" fill="rgb(0, 0, 0)" stroke="rgb(204, 204, 204)" stroke-width="1px"></line></g></g><g transform="translate(70, 0)" clip-path="url(#clip_0)"><clipPath id="clip_0"><rect width="1333" height="377"></rect></clipPath><g><g><g><line x1="0" y1="0" x2="0" y2="377" fill="rgb(0, 0, 0)" stroke="rgb(66, 66, 66)" stroke-width="1px" opacity="0.25"></line><line x1="121.18181818181819" y1="0" x2="121.18181818181819" y2="377" fill="rgb(0, 0, 0)" stroke="rgb(66, 66, 66)" stroke-width="1px" opacity="0.25"></line><line x1="242.36363636363637" y1="0" x2="242.36363636363637" y2="377" fill="rgb(0, 0, 0)" stroke="rgb(66, 66, 66)" stroke-width="1px" opacity="0.25"></line><line x1="363.5454545454545" y1="0" x2="363.5454545454545" y2="377" fill="rgb(0, 0, 0)" stroke="rgb(66, 66, 66)" stroke-width="1px" opacity="0.25"></line><line x1="484.72727272727275" y1="0" x2="484.72727272727275" y2="377" fill="rgb(0, 0, 0)" stroke="rgb(66, 66, 66)" stroke-width="1px" opacity="0.25"></line><line x1="605.9090909090909" y1="0" x2="605.9090909090909" y2="377" fill="rgb(0, 0, 0)" stroke="rgb(66, 66, 66)" stroke-width="1px" opacity="0.25"></line><line x1="727.090909090909" y1="0" x2="727.090909090909" y2="377" fill="rgb(0, 0, 0)" stroke="rgb(66, 66, 66)" stroke-width="1px" opacity="0.25"></line><line x1="848.2727272727273" y1="0" x2="848.2727272727273" y2="377" fill="rgb(0, 0, 0)" stroke="rgb(66, 66, 66)" stroke-width="1px" opacity="0.25"></line><line x1="969.4545454545455" y1="0" x2="969.4545454545455" y2="377" fill="rgb(0, 0, 0)" stroke="rgb(66, 66, 66)" stroke-width="1px" opacity="0.25"></line><line x1="1090.6363636363637" y1="0" x2="1090.6363636363637" y2="377" fill="rgb(0, 0, 0)" stroke="rgb(66, 66, 66)" stroke-width="1px" opacity="0.25"></line><line x1="1211.8181818181818" y1="0" x2="1211.8181818181818" y2="377" fill="rgb(0, 0, 0)" stroke="rgb(66, 66, 66)" stroke-width="1px" opacity="0.25"></line><line x1="1333" y1="0" x2="1333" y2="377" fill="rgb(0, 0, 0)" stroke="rgb(66, 66, 66)" stroke-width="1px" opacity="0.25"></line></g><g><line x1="0" y1="377" x2="1333" y2="377" fill="rgb(0, 0, 0)" stroke="rgb(66, 66, 66)" stroke-width="1px" opacity="0.25"></line><line x1="0" y1="335.1111111111111" x2="1333" y2="335.1111111111111" fill="rgb(0, 0, 0)" stroke="rgb(66, 66, 66)" stroke-width="1px" opacity="0.25"></line><line x1="0" y1="293.22222222222223" x2="1333" y2="293.22222222222223" fill="rgb(0, 0, 0)" stroke="rgb(66, 66, 66)" stroke-width="1px" opacity="0.25"></line><line x1="0" y1="251.33333333333337" x2="1333" y2="251.33333333333337" fill="rgb(0, 0, 0)" stroke="rgb(66, 66, 66)" stroke-width="1px" opacity="0.25"></line><line x1="0" y1="209.44444444444454" x2="1333" y2="209.44444444444454" fill="rgb(0, 0, 0)" stroke="rgb(66, 66, 66)" stroke-width="1px" opacity="0.25"></line><line x1="0" y1="167.55555555555554" x2="1333" y2="167.55555555555554" fill="rgb(0, 0, 0)" stroke="rgb(66, 66, 66)" stroke-width="1px" opacity="0.25"></line><line x1="0" y1="125.66666666666677" x2="1333" y2="125.66666666666677" fill="rgb(0, 0, 0)" stroke="rgb(66, 66, 66)" stroke-width="1px" opacity="0.25"></line><line x1="0" y1="83.77777777777777" x2="1333" y2="83.77777777777777" fill="rgb(0, 0, 0)" stroke="rgb(66, 66, 66)" stroke-width="1px" opacity="0.25"></line><line x1="0" y1="41.88888888888899" x2="1333" y2="41.88888888888899" fill="rgb(0, 0, 0)" stroke="rgb(66, 66, 66)" stroke-width="1px" opacity="0.25"></line><line x1="0" y1="0" x2="1333" y2="0" fill="rgb(0, 0, 0)" stroke="rgb(66, 66, 66)" stroke-width="1px" opacity="0.25"></line></g></g></g><g><g><line x1="0" y1="1298.5555555555557" x2="1333" y2="1298.5555555555557" fill="rgb(0, 0, 0)" stroke="rgb(153, 153, 153)" stroke-width="1.5px"></line></g></g><g><g><line x1="121.18181818181819" y1="0" x2="121.18181818181819" y2="377" fill="rgb(0, 0, 0)" stroke="rgb(153, 153, 153)" stroke-width="1.5px"></line></g></g><g><g><g><g><g><path stroke="rgb(255, 112, 67)" stroke-width="2px" d="M133.3,41.8888292004251L133.3,41.8888292004251L133.3,41.8888292004251L133.3,41.8888292004251L133.3,41.88882920042531L133.3,41.8888292004251L133.3,41.88882920042531L133.3,41.88882920042531L133.3,41.88882920042531L133.3,41.8888292004251L133.3,41.8888292004251L145.4181818181818,41.8888292004251L133.3,41.8888292004251L133.3,50.27319234174177L133.3,51.10876074208616L133.3,49.4720685748572L133.3,48.490348831011L133.3,47.7465297054674L145.4181818181818,49.19726644336415L157.53636363636363,51.9645855305451L133.3,49.831100465269174L145.4181818181818,50.447928615986264L484.72727272727275,48.921141061187875L496.8454545454546,49.90194950218469L508.9636363636364,52.38730125419378L521.0818181818182,55.77537528783653L533.2,59.70508221953301L545.3181818181819,63.959720473126225L496.8454545454546,58.92509064686106L508.9636363636364,57.801178626605335L521.0818181818182,59.023696094008436L533.2,61.65407089056149L545.3181818181819,65.12911122893453L557.4363636363636,69.11099964903323L569.5545454545454,73.39699692961464L581.6727272727272,77.86545953930246L593.790909090909,82.4434013562856L605.9090909090909,87.08698193923075L618.0272727272727,91.76999455111742L618.0272727272727,94.57980211157195L630.1454545454545,98.16255091589125L642.2636363636364,102.20906446648505L654.3818181818182,106.53383686507166L666.5,111.02556457268197L678.6181818181817,115.61741670079118L690.7363636363636,120.26939224639833L702.8545454545454,124.9574418425764L714.9727272727273,129.6671358691426L727.090909090909,134.38981655396893L739.209090909091,139.120240468683L751.3272727272727,143.8553590864251L763.4454545454546,148.59329452599L775.5636363636363,153.33292005865215L787.6818181818182,158.07355964717505L739.209090909091,153.3304863245657L751.3272727272727,152.3815065999314L763.4454545454546,153.70898303408043L775.5636363636363,156.40233316349867L787.6818181818182,159.91520751007806L799.8,163.91979638695463L799.8,166.3225497130804L811.9181818181819,169.66101721259975L824.0363636363636,173.5609619812402L836.1545454545455,177.79779311135326L848.2727272727273,182.2367560583495L860.3909090909092,186.7969980954763L860.3909090909092,189.53314331775215L872.5090909090909,193.07164595496184L884.6272727272728,197.09161180621643L896.7454545454545,201.40045558589756L908.8636363636363,205.8826261226353L920.9818181818182,210.4687927136066L933.0999999999999,215.11735693711827L945.2181818181818,219.80331097506928L957.3363636363636,224.51174766676854L969.4545454545455,229.23367395071705L981.5727272727272,233.96369399001466L981.5727272727272,236.80170601359345L993.6909090909091,240.40137749666948L1005.8090909090909,244.45799589035894L1017.9272727272728,248.78883119550133L1030.0454545454545,253.28419664751559L1042.1636363636364,257.87828018765293L1054.2818181818182,262.5315945806642L1066.4,267.2204474853995L1078.5181818181818,271.9305991146272L1090.6363636363637,276.6535299785501L1102.7545454545455,281.38415276583277L1114.8727272727272,286.11939070713106L1126.990909090909,290.8573733582964L1139.1090909090908,295.59702721792434L1151.2272727272727,300.33765942008745L1163.3454545454545,305.0789030103141L1163.3454545454545,307.92364916445007L1175.4636363636364,311.52736112586047L1187.581818181818,315.58642818909306L1199.7,319.9187326959614L1211.8181818181818,324.41497966901113L1223.9363636363637,329.00956773922735L1236.0545454545454,333.6631848502859L1248.1727272727273,338.35221938584965L1260.290909090909,343.06247999357424L1272.409090909091,347.7855006271379" style="fill: none;" fill="none"></path></g></g></g></g><g opacity="0.2"><g><g><g><path stroke="rgb(255, 112, 67)" stroke-width="2px" d="M133.3,41.8888292004251L133.3,41.8888292004251L133.3,41.8888292004251L133.3,41.8888292004251L133.3,41.8888292004251L133.3,41.8888292004251L133.3,41.8888292004251L133.3,41.8888292004251L133.3,41.8888292004251L133.3,41.8888292004251L133.3,41.8888292004251L145.4181818181818,41.8888292004251L133.3,41.8888292004251L133.3,62.83331121349085L133.3,52.361131163313985L133.3,47.018184646136255L133.3,47.018184646136255L133.3,46.630989872747016L145.4181818181818,51.37315054506893L157.53636363636363,56.11531121739085L133.3,46.630989872747016L145.4181818181818,51.37315054506893L484.72727272727275,46.630989872747016L496.8454545454546,51.37315054506893L508.9636363636364,56.11531121739085L521.0818181818182,60.85747188971276L533.2,65.59963256203469L545.3181818181819,70.34167132164457L496.8454545454546,51.37315054506893L508.9636363636364,56.11531121739085L521.0818181818182,60.85747188971276L533.2,65.59963256203469L545.3181818181819,70.34167132164457L557.4363636363636,75.08383199396648L569.5545454545454,79.8259926662884L581.6727272727272,84.56815333861032L593.790909090909,89.31031401093223L605.9090909090909,94.05235277054213L618.0272727272727,98.79451344286404L618.0272727272727,98.79451344286404L630.1454545454545,103.53667411518596L642.2636363636364,108.27883478750788L654.3818181818182,113.02099545982979L666.5,117.7631561321517L678.6181818181817,122.50519489176156L690.7363636363636,127.24735556408348L702.8545454545454,131.9895162364054L714.9727272727273,136.73167690872737L727.090909090909,141.47383758104928L739.209090909091,146.21587634065912L751.3272727272727,150.95803701298104L763.4454545454546,155.70019768530295L775.5636363636363,160.44235835762487L787.6818181818182,165.18451902994678L739.209090909091,146.21587634065912L751.3272727272727,150.95803701298104L763.4454545454546,155.70019768530295L775.5636363636363,160.44235835762487L787.6818181818182,165.18451902994678L799.8,169.9266797022687L799.8,169.9266797022687L811.9181818181819,174.6687184618786L824.0363636363636,179.4108791342005L836.1545454545455,184.15303980652243L848.2727272727273,188.89520047884434L860.3909090909092,193.63736115116626L860.3909090909092,193.63736115116626L872.5090909090909,198.3793999107762L884.6272727272728,203.1215605830981L896.7454545454545,207.86372125542002L908.8636363636363,212.60588192774193L920.9818181818182,217.34804260006385L933.0999999999999,222.09020327238576L945.2181818181818,226.83224203199563L957.3363636363636,231.57440270431755L969.4545454545455,236.31656337663946L981.5727272727272,241.05872404896138L981.5727272727272,241.05872404896138L993.6909090909091,245.8008847212833L1005.8090909090909,250.5429234808932L1017.9272727272728,255.2850841532151L1030.0454545454545,260.027244825537L1042.1636363636364,264.76940549785894L1054.2818181818182,269.51156617018086L1066.4,274.2537268425028L1078.5181818181818,278.9958265584687L1090.6363636363637,283.7379262744346L1102.7545454545455,288.4800869467565L1114.8727272727272,293.2222476190784L1126.990909090909,297.9643473350443L1139.1090909090908,302.70650800736627L1151.2272727272727,307.44860772333215L1163.3454545454545,312.19076839565406L1163.3454545454545,312.19076839565406L1175.4636363636364,316.932929067976L1187.581818181818,321.6750287839419L1199.7,326.4171894562638L1211.8181818181818,331.15935012858574L1223.9363636363637,335.9014498445516L1236.0545454545454,340.64361051687354L1248.1727272727273,345.38577118919545L1260.290909090909,350.12787090516133L1272.409090909091,354.87003157748325" style="fill: none;" fill="none"></path></g></g></g></g></g></g><g transform="translate(70, 377)" clip-path="url(#clip_1)"><clipPath id="clip_1"><rect width="1333" height="23"></rect></clipPath><g><g><line x1="0" y1="0" x2="0" y2="5" style="visibility: inherit;" fill="rgb(0, 0, 0)" stroke="rgb(204, 204, 204)" stroke-width="1px"></line><line x1="121.18181818181819" y1="0" x2="121.18181818181819" y2="5" style="visibility: inherit;" fill="rgb(0, 0, 0)" stroke="rgb(204, 204, 204)" stroke-width="1px"></line><line x1="242.36363636363637" y1="0" x2="242.36363636363637" y2="5" style="visibility: inherit;" fill="rgb(0, 0, 0)" stroke="rgb(204, 204, 204)" stroke-width="1px"></line><line x1="363.5454545454545" y1="0" x2="363.5454545454545" y2="5" style="visibility: inherit;" fill="rgb(0, 0, 0)" stroke="rgb(204, 204, 204)" stroke-width="1px"></line><line x1="484.72727272727275" y1="0" x2="484.72727272727275" y2="5" style="visibility: inherit;" fill="rgb(0, 0, 0)" stroke="rgb(204, 204, 204)" stroke-width="1px"></line><line x1="605.9090909090909" y1="0" x2="605.9090909090909" y2="5" style="visibility: inherit;" fill="rgb(0, 0, 0)" stroke="rgb(204, 204, 204)" stroke-width="1px"></line><line x1="727.090909090909" y1="0" x2="727.090909090909" y2="5" style="visibility: inherit;" fill="rgb(0, 0, 0)" stroke="rgb(204, 204, 204)" stroke-width="1px"></line><line x1="848.2727272727273" y1="0" x2="848.2727272727273" y2="5" style="visibility: inherit;" fill="rgb(0, 0, 0)" stroke="rgb(204, 204, 204)" stroke-width="1px"></line><line x1="969.4545454545455" y1="0" x2="969.4545454545455" y2="5" style="visibility: inherit;" fill="rgb(0, 0, 0)" stroke="rgb(204, 204, 204)" stroke-width="1px"></line><line x1="1090.6363636363637" y1="0" x2="1090.6363636363637" y2="5" style="visibility: inherit;" fill="rgb(0, 0, 0)" stroke="rgb(204, 204, 204)" stroke-width="1px"></line><line x1="1211.8181818181818" y1="0" x2="1211.8181818181818" y2="5" style="visibility: inherit;" fill="rgb(0, 0, 0)" stroke="rgb(204, 204, 204)" stroke-width="1px"></line><line x1="1333" y1="0" x2="1333" y2="5" style="visibility: inherit;" fill="rgb(0, 0, 0)" stroke="rgb(204, 204, 204)" stroke-width="1px"></line></g><g transform="translate(0, 8)"><text x="0" y="0" dx="0em" dy="0.95em" style="text-anchor: middle; visibility: hidden; font-family: Roboto, sans-serif; font-size: 12px; font-weight: 200;" fill="rgb(33, 33, 33)" stroke="none" stroke-width="1px">-10</text><text x="121.18181818181819" y="0" dx="0em" dy="0.95em" style="text-anchor: middle; visibility: inherit; font-family: Roboto, sans-serif; font-size: 12px; font-weight: 200;" fill="rgb(33, 33, 33)" stroke="none" stroke-width="1px">0</text><text x="242.36363636363637" y="0" dx="0em" dy="0.95em" style="text-anchor: middle; visibility: inherit; font-family: Roboto, sans-serif; font-size: 12px; font-weight: 200;" fill="rgb(33, 33, 33)" stroke="none" stroke-width="1px">10</text><text x="363.5454545454545" y="0" dx="0em" dy="0.95em" style="text-anchor: middle; visibility: inherit; font-family: Roboto, sans-serif; font-size: 12px; font-weight: 200;" fill="rgb(33, 33, 33)" stroke="none" stroke-width="1px">20</text><text x="484.72727272727275" y="0" dx="0em" dy="0.95em" style="text-anchor: middle; visibility: inherit; font-family: Roboto, sans-serif; font-size: 12px; font-weight: 200;" fill="rgb(33, 33, 33)" stroke="none" stroke-width="1px">30</text><text x="605.9090909090909" y="0" dx="0em" dy="0.95em" style="text-anchor: middle; visibility: inherit; font-family: Roboto, sans-serif; font-size: 12px; font-weight: 200;" fill="rgb(33, 33, 33)" stroke="none" stroke-width="1px">40</text><text x="727.090909090909" y="0" dx="0em" dy="0.95em" style="text-anchor: middle; visibility: inherit; font-family: Roboto, sans-serif; font-size: 12px; font-weight: 200;" fill="rgb(33, 33, 33)" stroke="none" stroke-width="1px">50</text><text x="848.2727272727273" y="0" dx="0em" dy="0.95em" style="text-anchor: middle; visibility: inherit; font-family: Roboto, sans-serif; font-size: 12px; font-weight: 200;" fill="rgb(33, 33, 33)" stroke="none" stroke-width="1px">60</text><text x="969.4545454545455" y="0" dx="0em" dy="0.95em" style="text-anchor: middle; visibility: inherit; font-family: Roboto, sans-serif; font-size: 12px; font-weight: 200;" fill="rgb(33, 33, 33)" stroke="none" stroke-width="1px">70</text><text x="1090.6363636363637" y="0" dx="0em" dy="0.95em" style="text-anchor: middle; visibility: inherit; font-family: Roboto, sans-serif; font-size: 12px; font-weight: 200;" fill="rgb(33, 33, 33)" stroke="none" stroke-width="1px">80</text><text x="1211.8181818181818" y="0" dx="0em" dy="0.95em" style="text-anchor: middle; visibility: inherit; font-family: Roboto, sans-serif; font-size: 12px; font-weight: 200;" fill="rgb(33, 33, 33)" stroke="none" stroke-width="1px">90</text><text x="1333" y="0" dx="0em" dy="0.95em" style="text-anchor: middle; visibility: hidden; font-family: Roboto, sans-serif; font-size: 12px; font-weight: 200;" fill="rgb(33, 33, 33)" stroke="none" stroke-width="1px">100</text></g><line x1="0" y1="0" x2="1333" y2="0" fill="rgb(0, 0, 0)" stroke="rgb(204, 204, 204)" stroke-width="1px"></line></g></g></g></g></svg>