<svg viewBox="0 0 1403 400" xmlns="http://www.w3.org/2000/svg"><g><g><g><g><g><line x1="30" y1="377" x2="25" y2="377" style="visibility: inherit;" fill="rgb(0, 0, 0)" stroke="rgb(204, 204, 204)" stroke-width="1px"></line><line x1="30" y1="323.14285714285717" x2="25" y2="323.14285714285717" style="visibility: inherit;" fill="rgb(0, 0, 0)" stroke="rgb(204, 204, 204)" stroke-width="1px"></line><line x1="30" y1="269.2857142857143" x2="25" y2="269.2857142857143" style="visibility: inherit;" fill="rgb(0, 0, 0)" stroke="rgb(204, 204, 204)" stroke-width="1px"></line><line x1="30" y1="215.42857142857142" x2="25" y2="215.42857142857142" style="visibility: inherit;" fill="rgb(0, 0, 0)" stroke="rgb(204, 204, 204)" stroke-width="1px"></line><line x1="30" y1="161.57142857142858" x2="25" y2="161.57142857142858" style="visibility: inherit;" fill="rgb(0, 0, 0)" stroke="rgb(204, 204, 204)" stroke-width="1px"></line><line x1="30" y1="107.71428571428571" x2="25" y2="107.71428571428571" style="visibility: inherit;" fill="rgb(0, 0, 0)" stroke="rgb(204, 204, 204)" stroke-width="1px"></line><line x1="30" y1="53.857142857142875" x2="25" y2="53.857142857142875" style="visibility: inherit;" fill="rgb(0, 0, 0)" stroke="rgb(204, 204, 204)" stroke-width="1px"></line><line x1="30" y1="0" x2="25" y2="0" style="visibility: inherit;" fill="rgb(0, 0, 0)" stroke="rgb(204, 204, 204)" stroke-width="1px"></line></g><g transform="translate(20, 0)"><text x="0" y="377" dx="0em" dy="0.3em" style="text-anchor: end; visibility: hidden; font-family: Roboto, sans-serif; font-size: 12px; font-weight: 200;" fill="rgb(33, 33, 33)" stroke="none" stroke-width="1px">-5</text><text x="0" y="323.14285714285717" dx="0em" dy="0.3em" style="text-anchor: end; visibility: inherit; font-family: Roboto, sans-serif; font-size: 12px; font-weight: 200;" fill="rgb(33, 33, 33)" stroke="none" stroke-width="1px">0</text><text x="0" y="269.2857142857143" dx="0em" dy="0.3em" style="text-anchor: end; visibility: inherit; font-family: Roboto, sans-serif; font-size: 12px; font-weight: 200;" fill="rgb(33, 33, 33)" stroke="none" stroke-width="1px">5</text><text x="0" y="215.42857142857142" dx="0em" dy="0.3em" style="text-anchor: end; visibility: inherit; font-family: Roboto, sans-serif; font-size: 12px; font-weight: 200;" fill="rgb(33, 33, 33)" stroke="none" stroke-width="1px">10</text><text x="0" y="161.57142857142858" dx="0em" dy="0.3em" style="text-anchor: end; visibility: inherit; font-family: Roboto, sans-serif; font-size: 12px; font-weight: 200;" fill="rgb(33, 33, 33)" stroke="none" stroke-width="1px">15</text><text x="0" y="107.71428571428571" dx="0em" dy="0.3em" style="text-anchor: end; visibility: inherit; font-family: Roboto, sans-serif; font-size: 12px; font-weight: 200;" fill="rgb(33, 33, 33)" stroke="none" stroke-width="1px">20</text><text x="0" y="53.857142857142875" dx="0em" dy="0.3em" style="text-anchor: end; visibility: inherit; font-family: Roboto, sans-serif; font-size: 12px; font-weight: 200;" fill="rgb(33, 33, 33)" stroke="none" stroke-width="1px">25</text><text x="0" y="0" dx="0em" dy="0.3em" style="text-anchor: end; visibility: hidden; font-family: Roboto, sans-serif; font-size: 12px; font-weight: 200;" fill="rgb(33, 33, 33)" stroke="none" stroke-width="1px">30</text></g><line x1="30" y1="0" x2="30" y2="377" fill="rgb(0, 0, 0)" stroke="rgb(204, 204, 204)" stroke-width="1px"></line></g></g><g transform="translate(30, 0)" clip-path="url(#clip_0)"><clipPath id="clip_0"><rect width="1373" height="377"></rect></clipPath><g><g><g><line x1="0" y1="0" x2="0" y2="377" fill="rgb(0, 0, 0)" stroke="rgb(66, 66, 66)" stroke-width="1px" opacity="0.25"></line><line x1="124.81818181818183" y1="0" x2="124.81818181818183" y2="377" fill="rgb(0, 0, 0)" stroke="rgb(66, 66, 66)" stroke-width="1px" opacity="0.25"></line><line x1="249.63636363636365" y1="0" x2="249.63636363636365" y2="377" fill="rgb(0, 0, 0)" stroke="rgb(66, 66, 66)" stroke-width="1px" opacity="0.25"></line><line x1="374.45454545454544" y1="0" x2="374.45454545454544" y2="377" fill="rgb(0, 0, 0)" stroke="rgb(66, 66, 66)" stroke-width="1px" opacity="0.25"></line><line x1="499.2727272727273" y1="0" x2="499.2727272727273" y2="377" fill="rgb(0, 0, 0)" stroke="rgb(66, 66, 66)" stroke-width="1px" opacity="0.25"></line><line x1="624.0909090909091" y1="0" x2="624.0909090909091" y2="377" fill="rgb(0, 0, 0)" stroke="rgb(66, 66, 66)" stroke-width="1px" opacity="0.25"></line><line x1="748.9090909090909" y1="0" x2="748.9090909090909" y2="377" fill="rgb(0, 0, 0)" stroke="rgb(66, 66, 66)" stroke-width="1px" opacity="0.25"></line><line x1="873.7272727272727" y1="0" x2="873.7272727272727" y2="377" fill="rgb(0, 0, 0)" stroke="rgb(66, 66, 66)" stroke-width="1px" opacity="0.25"></line><line x1="998.5454545454546" y1="0" x2="998.5454545454546" y2="377" fill="rgb(0, 0, 0)" stroke="rgb(66, 66, 66)" stroke-width="1px" opacity="0.25"></line><line x1="1123.3636363636365" y1="0" x2="1123.3636363636365" y2="377" fill="rgb(0, 0, 0)" stroke="rgb(66, 66, 66)" stroke-width="1px" opacity="0.25"></line><line x1="1248.1818181818182" y1="0" x2="1248.1818181818182" y2="377" fill="rgb(0, 0, 0)" stroke="rgb(66, 66, 66)" stroke-width="1px" opacity="0.25"></line><line x1="1373" y1="0" x2="1373" y2="377" fill="rgb(0, 0, 0)" stroke="rgb(66, 66, 66)" stroke-width="1px" opacity="0.25"></line></g><g><line x1="0" y1="377" x2="1373" y2="377" fill="rgb(0, 0, 0)" stroke="rgb(66, 66, 66)" stroke-width="1px" opacity="0.25"></line><line x1="0" y1="323.14285714285717" x2="1373" y2="323.14285714285717" fill="rgb(0, 0, 0)" stroke="rgb(66, 66, 66)" stroke-width="1px" opacity="0.25"></line><line x1="0" y1="269.2857142857143" x2="1373" y2="269.2857142857143" fill="rgb(0, 0, 0)" stroke="rgb(66, 66, 66)" stroke-width="1px" opacity="0.25"></line><line x1="0" y1="215.42857142857142" x2="1373" y2="215.42857142857142" fill="rgb(0, 0, 0)" stroke="rgb(66, 66, 66)" stroke-width="1px" opacity="0.25"></line><line x1="0" y1="161.57142857142858" x2="1373" y2="161.57142857142858" fill="rgb(0, 0, 0)" stroke="rgb(66, 66, 66)" stroke-width="1px" opacity="0.25"></line><line x1="0" y1="107.71428571428571" x2="1373" y2="107.71428571428571" fill="rgb(0, 0, 0)" stroke="rgb(66, 66, 66)" stroke-width="1px" opacity="0.25"></line><line x1="0" y1="53.857142857142875" x2="1373" y2="53.857142857142875" fill="rgb(0, 0, 0)" stroke="rgb(66, 66, 66)" stroke-width="1px" opacity="0.25"></line><line x1="0" y1="0" x2="1373" y2="0" fill="rgb(0, 0, 0)" stroke="rgb(66, 66, 66)" stroke-width="1px" opacity="0.25"></line></g></g></g><g><g><line x1="0" y1="323.14285714285717" x2="1373" y2="323.14285714285717" fill="rgb(0, 0, 0)" stroke="rgb(153, 153, 153)" stroke-width="1.5px"></line></g></g><g><g><line x1="124.81818181818183" y1="0" x2="124.81818181818183" y2="377" fill="rgb(0, 0, 0)" stroke="rgb(153, 153, 153)" stroke-width="1.5px"></line></g></g><g><g><g><g><g><path stroke="rgb(255, 112, 67)" stroke-width="2px" d="M137.3,323.14285714285717L137.3,323.14285714285717L137.3,323.14285714285717L137.3,323.14285714285717L137.3,323.14285714285717L137.3,323.14285714285717L137.3,323.14285714285717L137.3,323.14285714285717L137.3,323.14285714285717L137.3,323.14285714285717L137.3,323.14285714285717L149.78181818181818,323.14285714285717L137.3,323.14285714285717L137.3,211.21281883890097L137.3,140.48703805098046L137.3,99.3537238123317L137.3,77.8424689483626L137.3,54.399504485542465L149.78181818181818,63.32158475896225L162.26363636363635,81.81825818734278L137.3,62.929244180117266L149.78181818181818,71.62992994451761L499.2727272727273,61.6120180167483L511.75454545454545,63.85399637933768L524.2363636363636,31.730535651812996L536.7181818181818,72.54610673067512L549.2,108.49234112487588L561.6818181818182,150.4620178636842L511.75454545454545,121.87669701629386L524.2363636363636,108.49593941545814L536.7181818181818,118.12099697641688L549.2,102.95680480805018L561.6818181818182,136.5273689749337L574.1636363636363,168.678556967123L586.6454545454545,192.94265212102007L599.1272727272727,212.57488231198639L611.6090909090909,228.20435969348588L624.0909090909091,238.7401911791354L636.5727272727272,244.90744327346746L636.5727272727272,239.35901607306636L649.0545454545454,241.24462157249363L661.5363636363636,245.92624927500765L674.0181818181818,234.03395001628272L686.5,243.78601358358526L698.9818181818181,248.23481372791895L711.4636363636364,254.97310795501483L723.9454545454545,247.108483542769L736.4272727272728,254.97978781107986L748.9090909090909,247.12024919934197L761.3909090909091,249.59251434637252L773.8727272727273,251.02589393040125L786.3545454545455,262.2325254940156L798.8363636363636,268.5377116476079L811.3181818181819,273.979192883651L761.3909090909091,272.94929785866026L773.8727272727273,260.986029831481L786.3545454545455,263.4394504478481L798.8363636363636,265.0515304851223L811.3181818181819,269.0963917495L823.8,272.56770489767905L823.8,274.4376499924405L836.2818181818183,263.39738298819225L848.7636363636364,271.2909528500356L861.2454545454545,276.99049198121367L873.7272727272727,260.53477479426664L886.209090909091,270.89913603941056L886.209090909091,245.1042049273049L898.690909090909,260.78338788721703L911.1727272727273,260.92531455126505L923.6545454545454,269.6625129767569L936.1363636363635,274.35031881194607L948.6181818181818,269.43170184189L961.0999999999999,274.1441881480025L973.5818181818182,278.7088955487136L986.0636363636363,280.89450006857317L998.5454545454546,283.83062502675705L1011.0272727272727,284.27473799921285L1011.0272727272727,286.3374498917039L1023.5090909090909,287.89175667382676L1035.990909090909,285.60282198950375L1048.4727272727273,285.257055974137L1060.9545454545455,286.14914340231405L1073.4363636363637,277.6165756072105L1085.918181818182,285.4878096815391L1098.4,285.83217955772454L1110.881818181818,289.72521468163444L1123.3636363636365,286.0613503704125L1135.8454545454545,291.3741641874618L1148.3272727272727,291.7457702889489L1160.8090909090909,295.73442569069465L1173.290909090909,292.3825697412208L1185.7727272727273,293.3215350812742L1198.2545454545455,294.9293117021023L1198.2545454545455,286.30051179870105L1210.7363636363636,284.1375093747965L1223.2181818181818,290.9243113227277L1235.7,295.0834256951564L1248.1818181818182,295.7279320312557L1260.6636363636364,295.0366311184945L1273.1454545454544,294.4391676452047L1285.6272727272728,284.39674305255073L1298.1090909090908,289.57960660129277L1310.5909090909092,293.51226180765156" style="fill: none;" fill="none"></path></g></g></g></g><g opacity="0.2"><g><g><g><path stroke="rgb(255, 112, 67)" stroke-width="2px" d="M137.3,323.14285714285717L137.3,323.14285714285717L137.3,323.14285714285717L137.3,323.14285714285717L137.3,323.14285714285717L137.3,323.14285714285717L137.3,323.14285714285717L137.3,323.14285714285717L137.3,323.14285714285717L137.3,323.14285714285717L137.3,323.14285714285717L149.78181818181818,323.14285714285717L137.3,323.14285714285717L137.3,43.53704398018975L137.3,34.48150236947196L137.3,37.68276285443985L137.3,45.584689494541706L137.3,19.241009957449798L149.78181818181818,76.70334597996302L162.26363636363635,109.56157766069684L137.3,34.59675908769882L149.78181818181818,84.68067229134697L499.2727272727273,46.58534791128977L511.75454545454545,67.21693736485074L524.2363636363636,-16.454427119663773L536.7181818181818,133.76928928920202L549.2,162.4116007396153L561.6818181818182,213.4164685385568L511.75454545454545,78.99874207632882L524.2363636363636,88.4248104095459L536.7181818181818,132.55858012608118L549.2,80.21051957266673L561.6818181818182,186.8832112176078L574.1636363636363,216.90533665248327L586.6454545454545,229.3387938090733L599.1272727272727,242.02322709219794L611.6090909090909,251.64857552392144L624.0909090909091,254.54393830980572L636.5727272727272,254.15832138061523L636.5727272727272,231.03637529100692L649.0545454545454,244.07302981785367L661.5363636363636,252.94869082314625L674.0181818181818,216.1955011367798L686.5,258.4141089303153L698.9818181818181,254.90801394326348L711.4636363636364,265.080549294608L723.9454545454545,235.31154692513604L736.4272727272728,266.78674421310427L748.9090909090909,235.33094128199983L761.3909090909091,253.30091206686836L773.8727272727273,253.17596330642698L786.3545454545455,279.04247283935547L798.8363636363636,277.9954908779689L811.3181818181819,282.14141473770144L761.3909090909091,271.4044553211757L773.8727272727273,243.0411277907235L786.3545454545455,267.1195813723973L798.8363636363636,267.46965054103305L811.3181818181819,275.1636836460658L823.8,277.7746746199472L823.8,277.24256763458254L836.2818181818183,246.83698248182023L848.7636363636364,283.13130764280044L861.2454545454545,285.5398006779807L873.7272727272727,235.85119901384627L886.209090909091,286.4456779071263L886.209090909091,206.41180825914657L898.690909090909,284.3021623270852L911.1727272727273,261.1382045473371L923.6545454545454,282.7683106149946L936.1363636363635,281.38202756473L948.6181818181818,262.05377638680596L961.0999999999999,281.2129176071712L973.5818181818182,285.5559566497803L986.0636363636363,284.1729068483625L998.5454545454546,288.23481246403287L1011.0272727272727,284.9409074578966L1011.0272727272727,289.4315177304404L1023.5090909090909,290.22321684701103L1035.990909090909,282.1694199630192L1048.4727272727273,284.73840695108686L1060.9545454545455,287.48727454457963L1073.4363636363637,264.81772391455513L1085.918181818182,297.294660793032L1098.4,286.3487343720027L1110.881818181818,295.56476736749926L1123.3636363636365,280.5655539035797L1135.8454545454545,299.3433849130358L1148.3272727272727,292.30317944117957L1160.8090909090909,301.71740879331315L1173.290909090909,287.35478581701005L1185.7727272727273,294.72998309135437L1198.2545454545455,297.3409766333444L1198.2545454545455,273.3573119435992L1210.7363636363636,280.89300573893956L1223.2181818181818,301.10451424462457L1235.7,301.3220972537994L1248.1818181818182,296.69469153540473L1260.6636363636364,293.9996797493526L1273.1454545454544,293.54297243527003L1285.6272727272728,269.3331061635699L1298.1090909090908,297.35390192440576L1310.5909090909092,299.4112446171897" style="fill: none;" fill="none"></path></g></g></g></g></g></g><g transform="translate(30, 377)" clip-path="url(#clip_1)"><clipPath id="clip_1"><rect width="1373" height="23"></rect></clipPath><g><g><line x1="0" y1="0" x2="0" y2="5" style="visibility: inherit;" fill="rgb(0, 0, 0)" stroke="rgb(204, 204, 204)" stroke-width="1px"></line><line x1="124.81818181818183" y1="0" x2="124.81818181818183" y2="5" style="visibility: inherit;" fill="rgb(0, 0, 0)" stroke="rgb(204, 204, 204)" stroke-width="1px"></line><line x1="249.63636363636365" y1="0" x2="249.63636363636365" y2="5" style="visibility: inherit;" fill="rgb(0, 0, 0)" stroke="rgb(204, 204, 204)" stroke-width="1px"></line><line x1="374.45454545454544" y1="0" x2="374.45454545454544" y2="5" style="visibility: inherit;" fill="rgb(0, 0, 0)" stroke="rgb(204, 204, 204)" stroke-width="1px"></line><line x1="499.2727272727273" y1="0" x2="499.2727272727273" y2="5" style="visibility: inherit;" fill="rgb(0, 0, 0)" stroke="rgb(204, 204, 204)" stroke-width="1px"></line><line x1="624.0909090909091" y1="0" x2="624.0909090909091" y2="5" style="visibility: inherit;" fill="rgb(0, 0, 0)" stroke="rgb(204, 204, 204)" stroke-width="1px"></line><line x1="748.9090909090909" y1="0" x2="748.9090909090909" y2="5" style="visibility: inherit;" fill="rgb(0, 0, 0)" stroke="rgb(204, 204, 204)" stroke-width="1px"></line><line x1="873.7272727272727" y1="0" x2="873.7272727272727" y2="5" style="visibility: inherit;" fill="rgb(0, 0, 0)" stroke="rgb(204, 204, 204)" stroke-width="1px"></line><line x1="998.5454545454546" y1="0" x2="998.5454545454546" y2="5" style="visibility: inherit;" fill="rgb(0, 0, 0)" stroke="rgb(204, 204, 204)" stroke-width="1px"></line><line x1="1123.3636363636365" y1="0" x2="1123.3636363636365" y2="5" style="visibility: inherit;" fill="rgb(0, 0, 0)" stroke="rgb(204, 204, 204)" stroke-width="1px"></line><line x1="1248.1818181818182" y1="0" x2="1248.1818181818182" y2="5" style="visibility: inherit;" fill="rgb(0, 0, 0)" stroke="rgb(204, 204, 204)" stroke-width="1px"></line><line x1="1373" y1="0" x2="1373" y2="5" style="visibility: inherit;" fill="rgb(0, 0, 0)" stroke="rgb(204, 204, 204)" stroke-width="1px"></line></g><g transform="translate(0, 8)"><text x="0" y="0" dx="0em" dy="0.95em" style="text-anchor: middle; visibility: hidden; font-family: Roboto, sans-serif; font-size: 12px; font-weight: 200;" fill="rgb(33, 33, 33)" stroke="none" stroke-width="1px">-10</text><text x="124.81818181818183" y="0" dx="0em" dy="0.95em" style="text-anchor: middle; visibility: inherit; font-family: Roboto, sans-serif; font-size: 12px; font-weight: 200;" fill="rgb(33, 33, 33)" stroke="none" stroke-width="1px">0</text><text x="249.63636363636365" y="0" dx="0em" dy="0.95em" style="text-anchor: middle; visibility: inherit; font-family: Roboto, sans-serif; font-size: 12px; font-weight: 200;" fill="rgb(33, 33, 33)" stroke="none" stroke-width="1px">10</text><text x="374.45454545454544" y="0" dx="0em" dy="0.95em" style="text-anchor: middle; visibility: inherit; font-family: Roboto, sans-serif; font-size: 12px; font-weight: 200;" fill="rgb(33, 33, 33)" stroke="none" stroke-width="1px">20</text><text x="499.2727272727273" y="0" dx="0em" dy="0.95em" style="text-anchor: middle; visibility: inherit; font-family: Roboto, sans-serif; font-size: 12px; font-weight: 200;" fill="rgb(33, 33, 33)" stroke="none" stroke-width="1px">30</text><text x="624.0909090909091" y="0" dx="0em" dy="0.95em" style="text-anchor: middle; visibility: inherit; font-family: Roboto, sans-serif; font-size: 12px; font-weight: 200;" fill="rgb(33, 33, 33)" stroke="none" stroke-width="1px">40</text><text x="748.9090909090909" y="0" dx="0em" dy="0.95em" style="text-anchor: middle; visibility: inherit; font-family: Roboto, sans-serif; font-size: 12px; font-weight: 200;" fill="rgb(33, 33, 33)" stroke="none" stroke-width="1px">50</text><text x="873.7272727272727" y="0" dx="0em" dy="0.95em" style="text-anchor: middle; visibility: inherit; font-family: Roboto, sans-serif; font-size: 12px; font-weight: 200;" fill="rgb(33, 33, 33)" stroke="none" stroke-width="1px">60</text><text x="998.5454545454546" y="0" dx="0em" dy="0.95em" style="text-anchor: middle; visibility: inherit; font-family: Roboto, sans-serif; font-size: 12px; font-weight: 200;" fill="rgb(33, 33, 33)" stroke="none" stroke-width="1px">70</text><text x="1123.3636363636365" y="0" dx="0em" dy="0.95em" style="text-anchor: middle; visibility: inherit; font-family: Roboto, sans-serif; font-size: 12px; font-weight: 200;" fill="rgb(33, 33, 33)" stroke="none" stroke-width="1px">80</text><text x="1248.1818181818182" y="0" dx="0em" dy="0.95em" style="text-anchor: middle; visibility: inherit; font-family: Roboto, sans-serif; font-size: 12px; font-weight: 200;" fill="rgb(33, 33, 33)" stroke="none" stroke-width="1px">90</text><text x="1373" y="0" dx="0em" dy="0.95em" style="text-anchor: middle; visibility: hidden; font-family: Roboto, sans-serif; font-size: 12px; font-weight: 200;" fill="rgb(33, 33, 33)" stroke="none" stroke-width="1px">100</text></g><line x1="0" y1="0" x2="1373" y2="0" fill="rgb(0, 0, 0)" stroke="rgb(204, 204, 204)" stroke-width="1px"></line></g></g></g></g></svg>